# xmcd CD database file
#
# Track frame offsets:
#	150
#	18161
#	34796
#	43585
#	62786
#	80702
#	101889
#	120700
#	138482
#	156312
#	170038
#	187753
#	209449
#	226119
#
# Disc length: 3126 seconds
#
# Revision: 0
# Processed by: cddbd v1.4PL0 Copyright (c) Steve Scherf et al.
# Submitted via: Feurio! 1.66 - http://www.feurio.com
#
DISCID=be0c340e
DTITLE=DJ Roughneck - the best dope cuts, jazz 'n' poisen breaks on CD vol.2
DYEAR=1900
DGENRE=
TTITLE0=Rudeboy
TTITLE1=The Style Is Wild
TTITLE2=Wicked Sax Break
TTITLE3=Bad Boy
TTITLE4=This Is A Hit
TTITLE5=Roughnecks Kickin
TTITLE6=Same Trip
TTITLE7=Dope Vibes
TTITLE8=Dealing With Da Funk
TTITLE9=Quitus
TTITLE10=Groove Rider
TTITLE11=Lumber Jack
TTITLE12=Jazzy Move
TTITLE13=Beats and Pieces 2
EXTD=
EXTT0=
EXTT1=
EXTT2=
EXTT3=
EXTT4=
EXTT5=
EXTT6=
EXTT7=
EXTT8=
EXTT9=
EXTT10=
EXTT11=
EXTT12=
EXTT13=
PLAYORDER=
